<?xml version="1.0" encoding="UTF-8"?>
<svg version="1.1" xmlns="http://www.w3.org/2000/svg" width="40px" height="40px">
<path d="M0 0 C13.2 0 26.4 0 40 0 C40 13.53 40 27.06 40 41 C26.8 41 13.6 41 0 41 C0 27.47 0 13.94 0 0 Z " fill="#19A7B8" transform="translate(0,0)"/>
<path d="M0 0 C0.66 0 1.32 0 2 0 C2.66 2.97 3.32 5.94 4 9 C7.63 9 11.26 9 15 9 C11.55015206 12.58936385 8.01089555 15.64752397 4 18.625 C2.4840625 19.75808594 2.4840625 19.75808594 0.9375 20.9140625 C-1.64816541 22.75016002 -4.25504931 24.41559831 -7 26 C-6.84660156 25.26394531 -6.69320313 24.52789062 -6.53515625 23.76953125 C-6.04873709 20.72639649 -5.7318624 18.07493282 -6 15 C-7.99231797 12.58522717 -10.24949025 11.41298007 -13 10 C-13 9.67 -13 9.34 -13 9 C-9.37 9 -5.74 9 -2 9 C-1.34 6.03 -0.68 3.06 0 0 Z " fill="#EAF7F8" transform="translate(19,8)"/>
<path d="M0 0 C0.33 2.31 0.66 4.62 1 7 C-4.875 3.25 -4.875 3.25 -6 1 C-4 0 -4 0 0 0 Z " fill="#E3F4F6" transform="translate(27,27)"/>
</svg>
